<?xml version="1.0" encoding="utf-8"?>
<!-- Generator: Adobe Illustrator 29.7.1, SVG Export Plug-In . SVG Version: 9.03 Build 0)  -->
<svg version="1.0" id="Layer_1" xmlns="http://www.w3.org/2000/svg" xmlns:xlink="http://www.w3.org/1999/xlink" x="0px" y="0px"
	 viewBox="0 0 900 900" style="enable-background:new 0 0 900 900;" xml:space="preserve">
<style type="text/css">
	.st0{fill:#36CCFD;}
</style>
<g transform="translate(0.000000,900.000000) scale(0.100000,-0.100000)">
	<path class="st0" d="M362.2,8086.4c-114.5-55.6-225.7-168.4-269.5-267.8C8.6,7619.9,0.2,7569.4,0.2,7246.1
		c-1.7-308.2,8.4-394.1,80.8-741c43.8-207.1,148.2-616.4,200.4-783.1c11.8-37.1,33.7-116.2,50.5-176.8
		c15.2-60.6,40.4-138.1,52.2-173.5c26.9-70.7,32-198.7,8.4-224c-37.1-37.1-153.3-345.2-208.8-545.6
		c-77.5-286.3-85.9-355.3-85.9-732.6c0-291.3,6.7-399.1,30.3-505.2c43.8-198.7,124.6-476.6,160-544c8.4-15.2,40.4-80.8,72.4-146.5
		c53.9-114.5,215.6-368.8,299.8-471.5c79.2-97.7,362.1-367.1,464.8-444.6c320-239.1,665.2-422.7,1067.7-565.9
		c190.3-67.4,154.9-57.3,437.9-131.4c144.8-37.1,213.9-52.2,525.4-112.8c52.2-10.1,158.3-25.3,235.8-33.7
		c75.8-8.4,200.4-23.6,274.5-33.7c220.6-28.6,1305.2-23.6,1574.6,8.4c651.7,77.5,1135.1,188.6,1625.2,375.6
		c587.8,224,1094.7,557.4,1431.5,941.4c387.3,441.2,581,943.1,581,1495.5c0,234.1-53.9,611.3-111.2,774.7
		c-13.5,38.7-23.6,80.8-23.6,96c0,16.8-10.1,53.9-23.6,84.2c-13.5,30.3-37.1,89.3-52.2,131.4c-50.5,134.7-136.4,316.6-232.4,491.8
		c-38.7,69-58.9,122.9-52.2,143.1c5.1,16.8,67.4,166.7,136.4,333.5c224,537.2,234.1,564.2,314.9,808.4
		c134.7,407.6,165,569.2,165,853.8c0,306.5-40.4,429.4-183.6,560.8c-242.5,222.3-698.9,208.8-1352.3-42.1
		c-50.5-20.2-112.8-42.1-136.4-50.5c-23.6-6.7-57.3-20.2-75.8-28.6c-16.8-10.1-58.9-28.6-90.9-43.8
		c-117.9-52.2-651.7-316.6-749.4-370.5c-55.6-32-158.3-87.6-229-126.3l-129.7-70.7l-131.4,42.1c-266.1,85.9-449.7,133-655.1,166.7
		c-82.5,15.2-200.4,33.7-261,45.5c-168.4,28.6-840.4,38.7-1018.9,15.2c-82.5-10.1-203.8-25.3-269.5-33.7
		c-64-6.7-160-21.9-210.5-33.7c-330.1-70.7-439.6-101-673.6-185.3c-119.6-42.1-163.4-40.4-230.7,11.8
		c-96,72.4-456.4,308.2-552.4,358.7c-18.5,10.1-79.2,43.8-134.7,75.8c-146.5,85.9-538.9,277.9-567.5,277.9c-13.5,0-32,8.4-42.1,18.5
		s-43.8,23.6-74.1,32c-32,6.7-79.2,21.9-107.8,32c-170.1,57.3-240.8,69-444.6,69S461.6,8135.3,362.2,8086.4z"/>
</g>
</svg>
