<?xml version="1.0" encoding="UTF-8"?>
<svg id="Layer_1" xmlns="http://www.w3.org/2000/svg" version="1.1" xmlns:serif="http://www.serif.com/" viewBox="0 0 2160 2592">
  <!-- Generator: Adobe Illustrator 29.8.1, SVG Export Plug-In . SVG Version: 2.1.1 Build 2)  -->
  <defs>
    <style>
      .st0 {
        fill: #fff;
        fill-rule: evenodd;
      }
    </style>
  </defs>
  <path class="st0" d="M1028.7,1438c188.1-40.6,452.7-158.3,596.7-493l-118.9-175.5h.1s-58.4-229.4-58.4-229.4L1406.7,0l-351,486h-486L218.7,0l-41.5,540.1-55.2,225.1L0,945c166.3,386.4,493.2,483.6,677.7,506.8,0,0,0,0,0,0l-243,1140.2h1188s-24.4-435.6-594-1154c0,0,0,0,0,0ZM1107.4,823.5h308.2c0,134.1-107.3,243-239.5,243s-94.6-15-132.6-40.6l63.9-202.4ZM449.4,1066.5c-49,0-94.6-15-132.6-40.6l63.9-202.4h308.2c0,134.1-107.3,243-239.5,243Z"/>
  <path class="st0" d="M1892.7,1512c-15.9,740.2-270,1080-270,1080,381.2-350.4,540-945,540-945,0,0-108.4-56.5-270-135Z"/>
  <path class="st0" d="M1797.7,622.1s-12.3-108.9-13-163.1c-211.4,30.6-303.3,195.7-303.3,195.7,173.3-79.1,316.4-32.6,316.4-32.6Z"/>
</svg>