<?xml version="1.0" encoding="UTF-8"?>
<svg id="Layer_1" xmlns="http://www.w3.org/2000/svg" version="1.1" viewBox="0 0 512 512">
  <!-- Generator: Adobe Illustrator 29.7.1, SVG Export Plug-In . SVG Version: 2.1.1 Build 8)  -->
  <defs>
    <style>
      .st0 {
        fill: #36ccfd;
      }
    </style>
  </defs>
  <path class="st0" d="M369.5,1.6c26,1.2,43.9,5,60.5,11.5,16.6,6.5,29.2,14.7,41.7,27.2,12.5,12.5,20.7,25.1,27.2,41.7s10.3,34.6,11.5,60.5c1.5,32.2,1.6,43.6,1.6,113.5s-.2,81.2-1.6,113.5c-1.2,26-5,43.9-11.5,60.6-6.5,16.6-14.7,29.2-27.2,41.7s-25.1,20.7-41.7,27.2-34.6,10.3-60.5,11.5c-32.2,1.5-43.6,1.6-113.5,1.6s-81.3-.2-113.5-1.6c-26-1.2-43.9-5-60.6-11.5-16.6-6.5-29.2-14.7-41.7-27.2s-20.7-25.1-27.2-41.7-10.3-34.6-11.5-60.5c-1.3-32.3-1.5-43.7-1.5-113.6s.2-81.3,1.6-113.5c1.2-26,5-43.9,11.5-60.6,6.5-16.6,14.7-29.2,27.2-41.7s25.1-20.6,41.7-27.1S116.6,2.8,142.6,1.6c32.1-1.4,43.5-1.6,113.4-1.6s81.3.2,113.5,1.6ZM256,56.9c-69.1,0-79.7.2-110.9,1.6-19.8.9-31.7,3.4-42.5,7.7-9.3,3.6-15.2,7.4-22.1,14.4-6.9,6.9-10.8,12.8-14.4,22.1-4.2,10.9-6.8,22.8-7.7,42.5-1.4,31.2-1.6,41.7-1.6,110.9s.2,79.7,1.6,110.9c.9,19.8,3.4,31.6,7.7,42.5,3.6,9.3,7.4,15.2,14.4,22.1,6.9,6.9,12.8,10.8,22.1,14.4,10.9,4.2,22.8,6.8,42.5,7.7,31.2,1.4,41.8,1.6,110.9,1.6s79.7-.2,110.9-1.6c19.8-.9,31.6-3.4,42.5-7.7,9.3-3.6,15.2-7.4,22.1-14.4,6.9-6.9,10.8-12.8,14.4-22.1,4.2-10.9,6.8-22.8,7.7-42.5,1.4-31.2,1.6-41.8,1.6-110.9s-.2-79.7-1.6-110.9c-.9-19.8-3.4-31.6-7.7-42.5-3.6-9.3-7.4-15.2-14.4-22.1-6.9-6.9-12.8-10.8-22.1-14.4-10.9-4.2-22.8-6.8-42.5-7.7-31.2-1.4-41.8-1.6-110.9-1.6ZM256,388.7c-73.3,0-132.7-59.4-132.7-132.7s59.4-132.7,132.7-132.7,132.7,59.4,132.7,132.7-59.4,132.7-132.7,132.7ZM256,331.9c41.9,0,75.9-34,75.9-75.9s-34-75.9-75.9-75.9-75.9,34-75.9,75.9,34,75.9,75.9,75.9ZM388.7,151.7c-15.7,0-28.4-12.7-28.4-28.4s12.7-28.4,28.4-28.4,28.4,12.7,28.4,28.4-12.7,28.4-28.4,28.4Z"/>
</svg>