<?xml version="1.0" encoding="UTF-8"?>
<svg id="Layer_1" xmlns="http://www.w3.org/2000/svg" version="1.1" viewBox="0 0 533.3 533.3">
  <!-- Generator: Adobe Illustrator 29.7.1, SVG Export Plug-In . SVG Version: 2.1.1 Build 8)  -->
  <defs>
    <style>
      .st0 {
        fill: #36ccfd;
      }
    </style>
  </defs>
  <path class="st0" d="M424.4,236.4c-86-51-227.7-55.7-309.8-30.8-13.2,4-27.1-3.4-31.1-16.6-4-13.2,3.4-27.1,16.6-31.1,94.2-28.6,250.8-23.1,349.7,35.7,11.9,7,15.7,22.3,8.7,34.2-7,11.9-22.4,15.8-34.2,8.7M421.6,312c-6,9.8-18.8,12.9-28.6,6.8-71.7-44-180.9-56.8-265.7-31.1-11,3.3-22.6-2.9-25.9-13.9-3.3-11,2.9-22.6,13.9-25.9,96.9-29.4,217.3-15.2,299.6,35.4,9.8,6,12.8,18.8,6.8,28.6M389,384.6c-4.8,7.8-15,10.3-22.8,5.6,0,0,0,0,0,0-62.6-38.3-141.4-46.9-234.3-25.7-8.9,2-17.9-3.5-19.9-12.5,0,0,0,0,0,0-2.1-8.9,3.5-17.8,12.5-19.9,0,0,0,0,0,0,101.6-23.2,188.7-13.2,259,29.7,7.8,4.8,10.3,15,5.5,22.8,0,0,0,0,0,0M266.7,0C119.4,0,0,119.4,0,266.7s119.4,266.7,266.7,266.7,266.7-119.4,266.7-266.7S413.9,0,266.7,0"/>
</svg>