<?xml version="1.0" encoding="UTF-8"?>
<svg id="Layer_1" xmlns="http://www.w3.org/2000/svg" version="1.1" viewBox="0 0 800 533.3">
  <!-- Generator: Adobe Illustrator 29.7.1, SVG Export Plug-In . SVG Version: 2.1.1 Build 8)  -->
  <defs>
    <style>
      .st0 {
        fill: #36ccfd;
      }
    </style>
  </defs>
  <path class="st0" d="M400,400c-25.7,0-50.9-7.1-72.9-20.5L0,180.3v308.6c0,24.5,19.9,44.4,44.4,44.4h711.1c24.5,0,44.4-19.9,44.4-44.4V180.3l-326.8,199.1c-22,13.5-47.3,20.6-73.2,20.6h0Z"/>
  <path class="st0" d="M776.3,90.7l-349.6,212.9c-16.4,10.1-37,10.1-53.3,0L23.8,90.7C4.8,79.4-4.2,56.7,2,35.6,8.6,14.4,28.2,0,50.4,0h699.2c22.2,0,41.9,14.4,48.4,35.6,6.1,21.2-2.8,43.8-21.8,55.1h0Z"/>
</svg>